<svg xmlns="http://www.w3.org/2000/svg" xmlns:xlink="http://www.w3.org/1999/xlink" width="53.576" height="38.936" viewBox="0 0 53.576 38.936"><defs><style>.a{fill:url(#a);}</style><linearGradient id="a" x1="0.5" y1="1" x2="0.5" gradientUnits="objectBoundingBox"><stop offset="0" stop-color="#358ae5"/><stop offset="1" stop-color="#9cffac"/></linearGradient></defs><g transform="translate(5.189 16.461)"><rect class="a" width="8.638" height="1.73"/></g><g transform="translate(5.189 21.65)"><rect class="a" width="12.962" height="1.73"/></g><g transform="translate(5.189 26.839)"><rect class="a" width="31.112" height="1.73"/></g><g transform="translate(5.189 32.017)"><rect class="a" width="5.189" height="1.73"/></g><g transform="translate(13.827 32.017)"><rect class="a" width="5.189" height="1.73"/></g><g transform="translate(22.475 32.017)"><rect class="a" width="5.189" height="1.73"/></g><g transform="translate(28.518 15.596)"><path class="a" d="M277.319,217.288a3.389,3.389,0,0,0-1.719.475,3.459,3.459,0,1,0,0,5.969,3.389,3.389,0,0,0,1.719.475,3.459,3.459,0,0,0,0-6.919Zm-3.016,5.126a1.606,1.606,0,0,1-.443.063,1.73,1.73,0,1,1,0-3.459,2.038,2.038,0,0,1,.443.063,3.356,3.356,0,0,0,0,3.333Zm3.016.063a1.73,1.73,0,1,1,1.73-1.73A1.737,1.737,0,0,1,277.319,222.477Z" transform="translate(-270.4 -217.288)"/></g><g transform="translate(0 0)"><path class="a" d="M51.773,81.007,15.514,69.554a2.476,2.476,0,0,0-3.248,1.687L9.281,80.68H2.594A2.606,2.606,0,0,0,0,83.275V105.75a2.593,2.593,0,0,0,2.594,2.594H40.625a2.577,2.577,0,0,0,2.162-1.171,12.111,12.111,0,0,0,1.434.327,2.569,2.569,0,0,0,2.468-1.814l6.771-21.431A2.505,2.505,0,0,0,51.773,81.007ZM12.867,75.059,30.68,80.68H19.195l-7.372-2.331Zm-1.561,4.946,2.162.686H11.095ZM41.49,105.75H41.48a.869.869,0,0,1-.865.865H2.594a.869.869,0,0,1-.865-.865V83.275a.869.869,0,0,1,.865-.865H40.625a.869.869,0,0,1,.865.865Zm3.554-.58a.873.873,0,0,1-1.086.559l-.749-.232V90.088l6,1.9ZM49.727,90.33l-6.518-2.057V84.646l7.562,2.384Zm2.088-6.592L51.3,85.384l-8.131-2.563a2.591,2.591,0,0,0-2.542-2.13H36.417L13.384,73.414l.517-1.645a.868.868,0,0,1,1.086-.559L51.246,82.652A.815.815,0,0,1,51.815,83.739Z" transform="translate(0 -69.408)"/></g></svg>