<svg xmlns="http://www.w3.org/2000/svg" xmlns:xlink="http://www.w3.org/1999/xlink" width="39.234" height="39.158" viewBox="0 0 39.234 39.158"><defs><style>.a{fill:url(#a);}</style><linearGradient id="a" x1="0.5" y1="1" x2="0.5" gradientUnits="objectBoundingBox"><stop offset="0" stop-color="#358ae5"/><stop offset="1" stop-color="#9cffac"/></linearGradient></defs><g transform="translate(0 0)"><path class="a" d="M17.361,28.033h1.147V29.18a1.147,1.147,0,1,0,2.294,0V28.033H21.95a1.147,1.147,0,0,0,0-2.294H20.8V24.591a1.147,1.147,0,1,0-2.294,0v1.147H17.361a1.147,1.147,0,0,0,0,2.294ZM38.087,16.561h-8.5l8.227-8.227a4.588,4.588,0,0,0-6.489-6.489L16.608,16.561H1.147A1.147,1.147,0,0,0,0,17.708,19.5,19.5,0,0,0,11.472,35.473V38.51a1.147,1.147,0,0,0,1.147,1.147h14a1.147,1.147,0,0,0,1.147-1.147V35.473A19.5,19.5,0,0,0,39.234,17.708a1.147,1.147,0,0,0-1.147-1.147ZM32.946,3.467a2.294,2.294,0,1,1,3.245,3.243l-9.85,9.85H19.853ZM26.184,33.653a1.147,1.147,0,0,0-.716,1.063v2.647h-11.7V34.716a1.147,1.147,0,0,0-.716-1.063,17.135,17.135,0,0,1-10.718-14.8H36.9A17.134,17.134,0,0,1,26.184,33.653ZM7.54,9.662l.351.351a4.363,4.363,0,0,1,1.286,3.106,1.147,1.147,0,1,0,2.294,0,4.363,4.363,0,0,1,1.286-3.106l.351-.351a8.04,8.04,0,0,0,7.54-8.015A1.147,1.147,0,0,0,19.5.5a8.04,8.04,0,0,0-8.015,7.54l-.351.351a6.757,6.757,0,0,0-.811.981,6.754,6.754,0,0,0-.811-.981L9.162,8.04A8.04,8.04,0,0,0,1.147.5,1.147,1.147,0,0,0,0,1.647,8.04,8.04,0,0,0,7.54,9.662Zm10.668-6.72a5.755,5.755,0,0,1-4.294,4.294,5.755,5.755,0,0,1,4.294-4.294ZM6.736,7.236A5.755,5.755,0,0,1,2.442,2.942,5.755,5.755,0,0,1,6.736,7.236Z" transform="translate(0 -0.5)"/></g></svg>