<svg xmlns="http://www.w3.org/2000/svg" xmlns:xlink="http://www.w3.org/1999/xlink" width="53.998" height="34.158" viewBox="0 0 53.998 34.158"><defs><style>.a{fill:url(#a);}</style><linearGradient id="a" x1="0.5" y1="1" x2="0.5" gradientUnits="objectBoundingBox"><stop offset="0" stop-color="#358ae5"/><stop offset="1" stop-color="#9cffac"/></linearGradient></defs><g transform="translate(0 0)"><path class="a" d="M50.218,108.543l-1.4-5.593a.846.846,0,0,0,.669-.827v-.9a3.555,3.555,0,0,0-3.551-3.551H39.569v-1.86a1.749,1.749,0,0,0-1.747-1.747H5.355a1.749,1.749,0,0,0-1.747,1.747v15.332a.846.846,0,1,0,1.691,0V95.809a.056.056,0,0,1,.056-.056H37.821a.056.056,0,0,1,.056.056v15.332a.846.846,0,1,0,1.691,0v-.958h9.978a2.767,2.767,0,0,1,2.627,1.916H49.545a.846.846,0,0,0-.846.846v1.8a2.652,2.652,0,0,0,2.649,2.649h.958v3.72H50.1a5.353,5.353,0,0,0-10.121,0h-.407v-6.369a.846.846,0,1,0-1.691,0v6.369H20.336a5.353,5.353,0,0,0-10.121,0H5.355a.056.056,0,0,1-.056-.056V119.2H8.962a.846.846,0,0,0,0-1.691H.846a.846.846,0,0,0,0,1.691H3.607v1.86a1.749,1.749,0,0,0,1.747,1.747H9.922c0,.019,0,.037,0,.056a5.355,5.355,0,1,0,10.709,0c0-.019,0-.038,0-.056H39.683c0,.019,0,.037,0,.056a5.355,5.355,0,1,0,10.709,0c0-.019,0-.038,0-.056h2.764a.846.846,0,0,0,.846-.846v-9.018A4.46,4.46,0,0,0,50.218,108.543Zm-10.65-9.182h6.369a1.862,1.862,0,0,1,1.86,1.86v.056H39.569Zm0,9.131v-5.524h7.513l1.381,5.524ZM15.275,126.529a3.664,3.664,0,1,1,3.664-3.664A3.668,3.668,0,0,1,15.275,126.529Zm29.761,0a3.664,3.664,0,1,1,3.664-3.664A3.668,3.668,0,0,1,45.036,126.529Zm7.271-10.822h-.958a.959.959,0,0,1-.958-.958v-.958h1.916v1.917Z" transform="translate(0 -94.062)"/></g><g transform="translate(13.528 27.056)"><path class="a" d="M130.014,350.6a1.747,1.747,0,1,0,1.747,1.747A1.749,1.749,0,0,0,130.014,350.6Z" transform="translate(-128.267 -350.597)"/></g><g transform="translate(43.289 27.056)"><path class="a" d="M412.2,350.6a1.747,1.747,0,1,0,1.747,1.747A1.749,1.749,0,0,0,412.2,350.6Z" transform="translate(-410.455 -350.597)"/></g><g transform="translate(21.644 23.448)"><path class="a" d="M218.7,316.393H206.073a.846.846,0,1,0,0,1.691H218.7a.846.846,0,1,0,0-1.691Z" transform="translate(-205.227 -316.393)"/></g><g transform="translate(1.804 19.841)"><path class="a" d="M28.77,282.188H17.948a.846.846,0,0,0,0,1.691H28.77a.846.846,0,0,0,0-1.691Z" transform="translate(-17.102 -282.188)"/></g><g transform="translate(15.332 8.117)"><path class="a" d="M159.439,171.27a.845.845,0,0,0-1.2,0l-7.519,7.519-3.911-3.911a.845.845,0,1,0-1.2,1.2l4.509,4.509a.845.845,0,0,0,1.2,0l8.117-8.117A.846.846,0,0,0,159.439,171.27Z" transform="translate(-145.37 -171.023)"/></g></svg>